<svg xmlns="http://www.w3.org/2000/svg" width="640" height="360" viewBox="0 0 640 360" role="img" aria-label="Automatización de tareas">
  <rect width="640" height="360" rx="18" fill="#fefce8"/>
  <rect x="45" y="38" width="550" height="284" rx="14" fill="#fff" stroke="#fde047"/>
  <text x="64" y="78" font-family="Poppins, Arial" font-size="24" font-weight="700" fill="#a16207">Automatización</text>
  <g transform="translate(105,150)">
    <circle cx="0" cy="0" r="54" fill="#fef9c3" stroke="#f59e0b" stroke-width="6"/>
    <circle cx="0" cy="0" r="9" fill="#f59e0b"/>
    <path d="M0 -44v18M0 44v-18M-44 0h18M44 0h-18" stroke="#f59e0b" stroke-width="6" stroke-linecap="round"/>
    <path d="M31 -31l-12 12M-31 31l12-12M31 31l-12-12M-31 -31l12 12" stroke="#f59e0b" stroke-width="5" stroke-linecap="round"/>
  </g>
  <path d="M185 150h140" stroke="#f59e0b" stroke-width="6" stroke-linecap="round"/>
  <polygon points="335,150 316,139 316,161" fill="#f59e0b"/>
  <rect x="355" y="110" width="200" height="130" rx="12" fill="#fffbeb" stroke="#fbbf24"/>
  <text x="372" y="144" font-family="Poppins, Arial" font-size="15" fill="#7c2d12">Reportes</text>
  <text x="372" y="170" font-family="Poppins, Arial" font-size="15" fill="#7c2d12">Transacciones</text>
  <text x="372" y="196" font-family="Poppins, Arial" font-size="15" fill="#7c2d12">Tareas periódicas</text>
  <text x="64" y="298" font-family="Poppins, Arial" font-size="14" fill="#334155">Menos trabajo manual, más productividad y consistencia.</text>
</svg>
